<svg xmlns="http://www.w3.org/2000/svg" viewBox="0 0 1200 900">
<g stroke="#fff" stroke-opacity="0.4" stroke-width="1" fill="none"><line x1="60" y1="0" x2="60" y2="900"/><line x1="120" y1="0" x2="120" y2="900"/><line x1="180" y1="0" x2="180" y2="900"/><line x1="240" y1="0" x2="240" y2="900"/><line x1="360" y1="0" x2="360" y2="900"/><line x1="420" y1="0" x2="420" y2="900"/><line x1="480" y1="0" x2="480" y2="900"/><line x1="540" y1="0" x2="540" y2="900"/><line x1="660" y1="0" x2="660" y2="900"/><line x1="720" y1="0" x2="720" y2="900"/><line x1="780" y1="0" x2="780" y2="900"/><line x1="840" y1="0" x2="840" y2="900"/><line x1="960" y1="0" x2="960" y2="900"/><line x1="1020" y1="0" x2="1020" y2="900"/><line x1="1080" y1="0" x2="1080" y2="900"/><line x1="1140" y1="0" x2="1140" y2="900"/><line x1="0" y1="60" x2="1200" y2="60"/><line x1="0" y1="120" x2="1200" y2="120"/><line x1="0" y1="180" x2="1200" y2="180"/><line x1="0" y1="240" x2="1200" y2="240"/><line x1="0" y1="360" x2="1200" y2="360"/><line x1="0" y1="420" x2="1200" y2="420"/><line x1="0" y1="480" x2="1200" y2="480"/><line x1="0" y1="540" x2="1200" y2="540"/><line x1="0" y1="660" x2="1200" y2="660"/><line x1="0" y1="720" x2="1200" y2="720"/><line x1="0" y1="780" x2="1200" y2="780"/><line x1="0" y1="840" x2="1200" y2="840"/></g>
<g stroke="#fff" stroke-opacity="0.85" stroke-width="1.2" fill="none"><line x1="0" y1="0" x2="0" y2="900"/><line x1="300" y1="0" x2="300" y2="900"/><line x1="600" y1="0" x2="600" y2="900"/><line x1="900" y1="0" x2="900" y2="900"/><line x1="0" y1="0" x2="1200" y2="0"/><line x1="0" y1="300" x2="1200" y2="300"/><line x1="0" y1="600" x2="1200" y2="600"/></g>
<g stroke="#fff" stroke-opacity="1" stroke-width="1.4" fill="none"><path d="M293 300H307M300 293V307"/><path d="M293 600H307M300 593V607"/><path d="M593 300H607M600 293V307"/><path d="M593 600H607M600 593V607"/><path d="M893 300H907M900 293V307"/><path d="M893 600H907M900 593V607"/></g>
<g stroke="#fff" stroke-opacity="0.9" stroke-width="1.4" fill="none"><path d="M205 145L215 155M215 145L205 155"/><path d="M805 385L815 395M815 385L805 395"/><path d="M445 685L455 695M455 685L445 695"/><path d="M1045 805L1055 815M1055 805L1045 815"/><path d="M85 565L95 575M95 565L85 575"/></g>
</svg>